# Blender 3.4.1
# www.blender.org
mtllib test.mtl
o Cube
v 0.995666 2.533555 -2.094013
v 0.995666 0.533555 -2.094013
v 0.995666 2.533555 -0.094013
v 0.995666 0.533555 -0.094013
v -1.004334 2.533555 -2.094013
v -1.004334 0.533555 -2.094013
v -1.004334 2.533555 -0.094013
v -1.004334 0.533555 -0.094013
v -1.004334 0.533555 -2.094013
v -1.004334 0.533555 -0.094013
v 0.995666 2.533555 -0.094013
v 0.995666 0.533555 -0.094013
v -1.004334 2.533555 -2.094013
v 0.995666 2.533555 -2.094013
v -0.004334 0.533555 -2.094013
v -0.004334 2.533555 -0.094013
v -0.004334 0.533555 -0.094013
v -0.004334 2.533555 -2.094013
v -0.004334 0.533555 -0.094013
v -0.004334 2.533555 -2.094013
v -1.004334 0.533555 -1.076520
v 0.995666 2.533555 -1.076520
v -1.004334 2.533555 -1.076520
v 0.995666 0.533555 -1.076520
v -1.004334 0.533555 -1.076520
v 0.995666 2.533555 -1.076520
v -0.004334 1.847266 -0.094013
v -0.004334 2.533555 -1.076520
v -0.504334 0.533555 -2.094013
v -0.504334 2.533555 -0.094013
v -0.504334 0.533555 -0.094013
v -0.504334 2.533555 -2.094013
v -0.504334 0.533555 -0.094013
v -0.504334 2.533555 -2.094013
v 0.995666 1.847266 -0.606644
v -0.504334 2.533555 -1.076520
v -0.504334 2.972875 -2.094013
v -0.004334 2.972875 -2.094013
v -0.004334 2.972875 -1.076520
v -0.504334 2.972875 -1.076520
v -0.504334 2.533555 -3.025909
v -0.004334 2.533555 -3.025909
v -0.504334 2.972875 -3.025909
v -0.004334 2.972875 -3.025909
v -0.783424 2.581984 -3.319919
v -0.283424 2.581984 -3.319919
v -0.783424 3.021304 -3.319919
v -0.283424 3.021304 -3.319919
v -0.585898 2.427150 -3.665958
v -0.085898 2.427150 -3.665958
v -0.585898 2.866470 -3.665958
v -0.085898 2.866470 -3.665958
v -1.004334 0.533555 -0.606644
v 0.995666 2.533555 -0.606644
v -1.004334 0.533555 -0.606644
v 0.995666 2.533555 -0.606644
v 0.995666 0.533555 -0.606644
v -0.504334 1.847266 -0.094013
v 0.995666 1.847266 -1.076520
v -1.004334 2.533555 -0.474702
v -0.504334 2.533555 -0.430897
v -0.004334 2.533555 -0.387064
v 0.995666 2.533555 -0.606644
v -1.004334 0.533555 -0.606644
v -0.504334 2.533555 -0.430897
v -1.004334 2.533555 -0.474702
v -0.004334 2.533555 -0.387064
v 0.995666 2.533555 -0.606644
v -0.004334 1.847266 -2.094013
v -0.504334 1.847266 -2.094013
v -1.004334 1.847266 -1.076520
v -1.004334 1.847266 -0.606644
v -1.004334 2.533555 -2.094013
v -1.004334 0.533555 -2.094013
v -1.004334 0.533555 -1.076520
v -1.004334 1.847266 -1.076520
vn -0.0000 -1.0000 -0.0000
vn -0.0000 1.0000 -0.0000
vn -1.0000 -0.0000 -0.0000
vn -0.0000 -0.0000 1.0000
vn -0.0000 -0.0000 -1.0000
vn 1.0000 -0.0000 -0.0000
vn -0.7253 -0.0000 0.6885
vn 0.8685 -0.0000 0.4957
vn -0.0000 0.9867 0.1625
vn 0.7253 -0.0000 -0.6885
vn -0.0000 -0.9867 -0.1625
vn -0.0000 -0.9128 0.4084
vn -0.8685 -0.0000 -0.4957
vn -0.0000 0.9128 -0.4084
vn -0.8975 -0.0000 -0.4410
vn -0.7159 -0.0000 0.6982
vn 0.4562 -0.0000 0.8899
vn 0.7132 -0.0000 -0.7009
vt 0.625000 0.500000
vt 0.375000 0.500000
vt 0.625000 0.750000
vt 0.375000 0.750000
vt 0.875000 0.500000
vt 0.625000 0.250000
vt 0.375000 0.250000
vt 0.875000 0.750000
vt 0.375000 1.000000
vt 0.375000 0.000000
vt 0.125000 0.500000
vt 0.375000 0.250000
vt 0.375000 0.000000
vt 0.125000 0.750000
vt 0.375000 1.000000
vt 0.000000 0.000000
vt 0.625000 0.750000
vt 0.375000 0.750000
vt 0.875000 0.500000
vt 0.625000 0.250000
vt 0.625000 0.500000
vt 0.250000 0.500000
vt 0.375000 0.375000
vt 0.000000 0.000000
vt 0.750000 0.750000
vt 0.375000 0.875000
vt 0.250000 0.750000
vt 0.750000 0.500000
vt 0.625000 0.375000
vt 0.375000 0.875000
vt 0.000000 0.000000
vt 0.750000 0.500000
vt 0.375000 0.122813
vt 0.125000 0.627187
vt 0.625000 0.627187
vt 0.875000 0.627187
vt 0.000000 0.000000
vt 0.375000 0.627187
vt 0.375000 0.122813
vt 0.625000 0.627187
vt 0.250000 0.750000
vt 0.000000 0.000000
vt 0.750000 0.627187
vt 0.187500 0.500000
vt 0.375000 0.312500
vt 0.812500 0.750000
vt 0.375000 0.937500
vt 0.187500 0.750000
vt 0.812500 0.500000
vt 0.625000 0.312500
vt 0.375000 0.937500
vt 0.000000 0.000000
vt 0.812500 0.500000
vt 0.375000 0.685921
vt 0.812500 0.627187
vt 0.812500 0.500000
vt 0.750000 0.500000
vt 0.750000 0.627187
vt 0.812500 0.627187
vt 0.812500 0.500000
vt 0.750000 0.500000
vt 0.812500 0.500000
vt 0.750000 0.500000
vt 0.812500 0.500000
vt 0.750000 0.500000
vt 0.812500 0.500000
vt 0.750000 0.500000
vt 0.812500 0.500000
vt 0.750000 0.500000
vt 0.812500 0.500000
vt 0.750000 0.500000
vt 0.125000 0.685921
vt 0.375000 0.064079
vt 0.625000 0.685921
vt 0.375000 0.064079
vt 0.625000 0.685921
vt 0.375000 0.685921
vt 0.187500 0.750000
vt 0.375000 0.627187
vt 0.875000 0.702414
vt 0.812500 0.707889
vt 0.750000 0.713369
vt 0.625000 0.685921
vt 0.812500 0.707889
vt 0.875000 0.702414
vt 0.000000 0.000000
vt 0.750000 0.713369
vt 0.625000 0.685921
vt 0.250000 0.500000
vt 0.375000 0.375000
vt 0.187500 0.500000
vt 0.375000 0.312500
vt 0.125000 0.627187
vt 0.000000 0.000000
vt 0.125000 0.685921
vt 0.000000 0.000000
vt 0.625000 0.250000
vt 0.375000 0.250000
vt 0.125000 0.627187
vt 0.000000 0.000000
vt 0.125000 0.627187
vt 0.000000 0.000000
s 0
usemtl Material
f 28/43/1 67/87/1 61/81/1 36/55/1
f 17/27/2 12/18/2 57/77/2
f 57/77/3 12/18/3 11/17/3 54/74/3
f 15/23/4 2/2/4 14/21/4 18/29/4
f 55/75/2 8/10/2 10/13/2 53/73/2
f 4/4/2 3/3/2 11/17/2 12/18/2
f 5/6/2 6/7/2 9/12/2 13/20/2
f 26/40/2 1/1/2 14/21/2 22/35/2
f 19/30/2 4/4/2 12/18/2 17/26/2
f 34/53/2 5/5/2 13/19/2 32/49/2
f 1/1/2 20/32/2 18/28/2 14/21/2
f 24/38/3 59/79/3 35/54/3 57/77/3 54/74/3 22/35/3
f 12/18/4 11/17/4 16/24/4 27/42/4 19/31/4
f 26/40/1 56/76/1 67/87/1 28/43/1
f 1/1/1 26/40/1 28/43/1 20/32/1
f 68/88/2 26/40/2 22/35/2 54/74/2
f 6/7/2 25/39/2 21/33/2 9/12/2
f 2/2/3 24/38/3 22/35/3 14/21/3
f 15/22/2 24/38/2 2/2/2
f 34/53/1 36/55/1 23/36/1 5/5/1
f 28/43/5 36/55/5 40/59/5 39/58/5
f 9/11/2 21/34/2 29/44/2
f 53/72/2 10/14/2 31/48/2
f 9/12/4 29/45/4 32/50/4 13/20/4
f 8/9/2 33/51/2 31/47/2 10/15/2
f 20/32/2 34/53/2 32/49/2 18/28/2
f 38/57/1 39/58/1 40/59/1 37/56/1
f 20/32/3 28/43/3 39/58/3 38/57/3
f 20/32/3 38/57/3 44/63/3 42/61/3
f 36/55/6 34/53/6 37/56/6 40/59/6
f 42/61/7 44/63/7 48/67/7 46/65/7
f 38/57/1 37/56/1 43/62/1 44/63/1
f 37/56/6 34/53/6 41/60/6 43/62/6
f 34/53/2 20/32/2 42/61/2 41/60/2
f 47/66/8 45/64/8 49/68/8 51/70/8
f 41/60/9 42/61/9 46/65/9 45/64/9
f 43/62/10 41/60/10 45/64/10 47/66/10
f 44/63/11 43/62/11 47/66/11 48/67/11
f 49/68/4 50/69/4 52/71/4 51/70/4
f 48/67/12 47/66/12 51/70/12 52/71/12
f 46/65/13 48/67/13 52/71/13 50/69/13
f 45/64/14 46/65/14 50/69/14 49/68/14
f 29/44/15 21/34/15 71/93/15 70/91/15
f 65/84/1 62/82/1 16/25/1 30/46/1
f 66/85/1 65/84/1 30/46/1 7/8/1
f 3/3/2 63/83/2 54/74/2 11/17/2
f 53/72/16 31/48/16 58/78/16 72/95/16
f 36/55/1 61/81/1 60/80/1 23/36/1
f 69/89/2 70/91/2 71/93/2 72/95/2 58/78/2 27/41/2 35/54/2 59/79/2
f 62/82/1 63/83/1 3/3/1 16/25/1
f 17/27/17 57/77/17 35/54/17 27/41/17
f 24/38/18 15/22/18 69/89/18 59/79/18
f 29/45/4 70/92/4 69/90/4 15/23/4 18/29/4 32/50/4
f 6/7/2 5/6/2 73/97/2 74/98/2
f 71/93/2 21/34/2 75/99/2 76/101/2
f 73/97/6 75/100/6 74/98/6
f 76/102/6 73/96/6 23/37/6
f 75/100/6 73/97/6 76/102/6
f 23/37/6 66/86/6 72/94/6 76/102/6
f 8/10/6 55/75/6 53/73/6 72/95/6 66/86/6 7/8/6
f 30/46/5 16/25/5 27/42/5 58/78/5 7/8/5
f 10/16/5 7/8/5 58/78/5 33/52/5
l 64 53
